<svg width="1200" height="630" viewBox="0 0 1200 630" fill="none" xmlns="http://www.w3.org/2000/svg">
  <rect width="1200" height="630" fill="#060B12"/>
  <rect x="34" y="34" width="1132" height="562" rx="32" fill="url(#paint0_linear)" fill-opacity="0.08" stroke="#FFFFFF" stroke-opacity="0.08"/>
  <circle cx="1040" cy="110" r="120" fill="#00F0FF" fill-opacity="0.12"/>
  <circle cx="1080" cy="150" r="180" fill="#39FF14" fill-opacity="0.08"/>
  <rect x="88" y="92" width="84" height="84" rx="24" fill="url(#paint1_linear)"/>
  <path d="M115 113H132V151H170V166H115V113Z" fill="#060B12"/>
  <rect x="157" y="113" width="19" height="19" rx="6" fill="#39FF14"/>
  <text x="196" y="154" fill="#F8FAFC" font-family="Inter, Arial, sans-serif" font-size="74" font-weight="800">lintai</text>
  <text x="88" y="236" fill="#A5B4FC" font-family="JetBrains Mono, monospace" font-size="24" font-weight="600">offline checks for AI agent security surfaces</text>
  <text x="88" y="328" fill="#E2E8F0" font-family="Inter, Arial, sans-serif" font-size="52" font-weight="700">Scan skills, MCP, hooks,</text>
  <text x="88" y="392" fill="#E2E8F0" font-family="Inter, Arial, sans-serif" font-size="52" font-weight="700">policy files and local agent config.</text>
  <rect x="88" y="452" width="428" height="70" rx="18" fill="#0F172A" stroke="#1E293B"/>
  <text x="118" y="496" fill="#00F0FF" font-family="JetBrains Mono, monospace" font-size="24" font-weight="700">lintai scan .</text>
  <text x="308" y="496" fill="#94A3B8" font-family="JetBrains Mono, monospace" font-size="24">--format sarif</text>
  <rect x="760" y="284" width="314" height="206" rx="24" fill="#08111B" stroke="#163042"/>
  <text x="796" y="336" fill="#F8FAFC" font-family="JetBrains Mono, monospace" font-size="24" font-weight="700">featured rules</text>
  <text x="796" y="382" fill="#00F0FF" font-family="JetBrains Mono, monospace" font-size="22">SEC352</text>
  <text x="928" y="382" fill="#39FF14" font-family="JetBrains Mono, monospace" font-size="22">SEC347</text>
  <text x="796" y="420" fill="#F472B6" font-family="JetBrains Mono, monospace" font-size="22">SEC340</text>
  <text x="928" y="420" fill="#F8FAFC" font-family="JetBrains Mono, monospace" font-size="22">SEC329</text>
  <defs>
    <linearGradient id="paint0_linear" x1="90" y1="60" x2="1100" y2="570" gradientUnits="userSpaceOnUse">
      <stop stop-color="#00F0FF"/>
      <stop offset="1" stop-color="#39FF14"/>
    </linearGradient>
    <linearGradient id="paint1_linear" x1="92" y1="94" x2="170" y2="176" gradientUnits="userSpaceOnUse">
      <stop stop-color="#00F0FF"/>
      <stop offset="1" stop-color="#39FF14"/>
    </linearGradient>
  </defs>
</svg>
